<svg width="181" height="62" viewBox="0 0 181 62" fill="none" xmlns="http://www.w3.org/2000/svg">
<path d="M24 7C10.7844 7 0 17.7844 0 31C0 44.2156 10.7844 55 24 55C37.2156 55 48 44.2156 48 31C48 17.7844 37.2156 7 24 7Z" fill="white"/>
<path d="M43.4488 28.1325C43.3865 27.6961 43.3242 27.3221 43.2618 26.9481C41.3917 17.9091 33.2878 11.3636 23.9995 11.3636C13.1527 11.3636 4.30078 20.2156 4.30078 31.0623C4.30078 31.3117 4.30078 31.561 4.30078 31.7481C4.73714 42.2831 13.4021 50.6987 23.9995 50.6987C34.8462 50.6987 43.6982 41.8468 43.6982 31C43.6359 30.0649 43.5735 29.0675 43.4488 28.1325ZM36.841 28.6312C37.9008 28.0078 39.0229 27.8208 40.2073 28.0701C40.8307 28.1948 41.454 28.5688 41.9527 29.0052L42.3268 29.3169C42.3891 29.8779 42.3891 30.439 42.3891 31C42.3891 31.8104 42.3268 32.6831 42.2021 33.4935C42.1397 33.6182 41.8904 34.0546 41.454 34.4909C40.3943 35.613 37.9631 37.4831 33.8488 37.4831C31.106 37.4831 28.9242 36.361 27.3657 35.052C30.919 33.5559 32.7891 31.8727 34.3475 30.5013C35.2203 29.8156 35.9683 29.1299 36.841 28.6312ZM38.8982 41.7844C38.0878 42.5948 36.5917 43.6546 32.8514 43.6546C31.293 43.6546 29.7969 43.3429 28.4255 42.6572C26.6177 41.7844 25.3709 40.4753 23.7501 38.6052L23.3138 38.0442C22.1917 36.7351 21.0073 35.3636 19.5112 34.2416C17.8904 32.9948 16.1449 32.4338 14.3995 32.4961C12.654 32.5585 10.7839 33.5559 9.28779 35.052C8.47741 35.8623 7.66702 37.0468 7.16831 38.2935C6.42026 36.5481 5.92156 34.6156 5.73455 32.6208C6.23325 32.0597 10.2229 27.6338 14.7112 27.6338C17.5787 27.6338 20.0099 29.4416 21.5683 30.9377C22.1917 31.5611 22.7527 32.2468 23.3138 33.0572C24.3112 34.4909 27.9891 39.1039 33.9112 39.1039C37.5268 39.1039 40.0203 37.8572 41.5787 36.6727C40.893 38.6052 40.0203 40.2883 38.8982 41.7844ZM8.41507 40.787C8.41507 40.7247 8.41507 40.6623 8.41507 40.6C8.29039 39.0416 9.47481 37.2961 10.4722 36.2987C11.6566 35.052 13.1527 34.3039 14.4618 34.2416C15.7709 34.1792 17.1423 34.6779 18.4514 35.6753C19.7605 36.6727 20.8826 37.9818 21.9423 39.2286L22.3787 39.7896C24.1242 41.7844 25.4956 43.2805 27.6151 44.2779C29.2358 45.026 30.9813 45.4623 32.7891 45.4623C33.9112 45.4623 34.9086 45.4 35.7813 45.213C34.0359 46.6468 32.1034 47.7688 29.9216 48.5169C28.3631 48.3299 25.3086 47.6442 22.6281 45.3377C21.4436 44.3403 20.5086 43.1559 19.6982 42.1585C18.0774 40.1013 16.519 38.2312 13.7138 38.9792C12.5917 39.2909 11.7813 39.9143 11.3449 40.9117C10.8462 41.9091 10.8462 43.0935 10.9709 44.1533C10.0358 43.0935 9.16312 41.9714 8.41507 40.787ZM13.1527 45.8987C12.7787 44.9636 12.28 42.8442 12.9034 41.5351C13.1527 41.0364 13.5891 40.6623 14.2125 40.4753C15.8956 40.039 16.7683 40.974 18.3891 43.0935C19.2618 44.1533 20.1969 45.4 21.506 46.4597C23.1268 47.8312 24.8099 48.7039 26.306 49.2026C25.4956 49.3273 24.7475 49.3896 23.9371 49.3896C19.9475 49.452 16.2073 48.1429 13.1527 45.8987Z" fill="url(#paint0_linear_953_4323)"/>
<path d="M65.984 41.432H82.928V47H59.12V12.2H65.984V41.432ZM101.77 43.592C100.282 46.184 97.4023 47.624 94.2343 47.624C88.0423 47.624 85.5463 43.832 85.5463 37.496V21.176H92.1703V36.056C92.1703 39.512 92.6503 42.296 96.3943 42.296C100.762 42.296 101.77 38.696 101.77 34.616V21.176H108.394V47H101.77V43.592ZM137.327 30.008H130.991C130.511 27.56 128.111 25.736 125.615 25.736C122.159 25.736 119.423 28.664 119.423 34.04C119.423 39.464 122.015 42.488 125.663 42.488C127.919 42.488 130.367 41.336 131.231 38.216H137.567C136.031 45.272 130.655 47.624 125.327 47.624C117.599 47.624 112.655 41.912 112.655 34.136C112.655 26.264 117.887 20.6 125.615 20.6C130.991 20.6 136.463 23.576 137.327 30.008ZM148.147 12.2V18.344H141.523V12.2H148.147ZM148.147 21.176V47H141.523V21.176H148.147ZM171.077 47V43.736C169.445 46.568 166.325 47.624 163.637 47.624C157.493 47.624 152.405 42.344 152.405 34.088C152.405 25.976 157.397 20.6 163.637 20.6C166.901 20.6 169.685 22.088 171.077 24.488V12.2H177.701V47H171.077ZM171.317 34.088C171.317 28.904 168.917 25.688 165.269 25.688C161.861 25.688 159.365 29.096 159.365 34.136C159.365 39.176 161.861 42.536 165.269 42.536C168.917 42.536 171.317 39.368 171.317 34.088Z" fill="white"/>
<defs>
<linearGradient id="paint0_linear_953_4323" x1="23.9995" y1="11.3636" x2="23.9995" y2="50.6987" gradientUnits="userSpaceOnUse">
<stop stop-color="#3E248A"/>
<stop offset="1" stop-color="#500C4D"/>
</linearGradient>
</defs>
</svg>
